<svg width="32" height="32" viewBox="0 0 32 32" fill="none" xmlns="http://www.w3.org/2000/svg">

<g id="Medical Aesthetics &#38; Wellness in Roanoke, TX">
<rect width="1512" height="6057" transform="translate(-1123 -889)" fill="#F3F9FF"/>
<g id="Frame 161">
<g id="Frame 160">
<g id="Group 64">
<g id="svg135" clip-path="url(#clip0_234_1501)">
<g id="g141">
<g id="g143">
<g id="Clip path group">
<mask id="mask0_234_1501" style="mask-type:luminance" maskUnits="userSpaceOnUse" x="0" y="0" width="32" height="32">
<g id="clipPath149">
<path id="path147" d="M0 3.8147e-06H32V32H0V3.8147e-06Z" fill="white"/>
</g>
</mask>
<g mask="url(#mask0_234_1501)">
<g id="g145">
<g id="g151">
<path id="path153" d="M13.153 13.61H13.0971C12.0079 13.61 11.125 12.727 11.125 11.638V11.207C11.125 10.1179 12.0079 9.23499 13.0971 9.23499H13.153C14.2421 9.23499 15.125 10.1179 15.125 11.207V11.638C15.125 12.727 14.2421 13.61 13.153 13.61Z" stroke="#00305E" stroke-width="1.25" stroke-miterlimit="10" stroke-linecap="round" stroke-linejoin="round"/>
</g>
<g id="g155">
<path id="path157" d="M15.625 17.375V30.125C15.625 30.8154 15.0654 31.375 14.375 31.375C13.6846 31.375 13.125 30.8154 13.125 30.125V22.6875" stroke="#00305E" stroke-width="1.25" stroke-miterlimit="10" stroke-linecap="round" stroke-linejoin="round"/>
</g>
<g id="g159">
<path id="path161" d="M13.125 22.6875V30.125C13.125 30.8154 12.5654 31.375 11.875 31.375C11.1846 31.375 10.625 30.8154 10.625 30.125V17.375" stroke="#00305E" stroke-width="1.25" stroke-miterlimit="10" stroke-linecap="round" stroke-linejoin="round"/>
</g>
<g id="g163">
<path id="path165" d="M10.625 19.8956H15.625" stroke="#00305E" stroke-width="1.25" stroke-miterlimit="10" stroke-linecap="round" stroke-linejoin="round"/>
</g>
<g id="g167">
<path id="path169" d="M21.0625 5.78101C21.0625 8.62876 23.371 10.9373 26.2188 10.9373C29.0664 10.9373 31.375 8.62876 31.375 5.78101C31.375 2.93326 29.0664 0.624756 26.2188 0.624756C23.371 0.624756 21.0625 2.93326 21.0625 5.78101Z" stroke="#00305E" stroke-width="1.25" stroke-miterlimit="10" stroke-linecap="round" stroke-linejoin="round"/>
</g>
<g id="g171">
<path id="path173" d="M24.2656 5.78101H28.1719" stroke="#00305E" stroke-width="1.25" stroke-miterlimit="10" stroke-linecap="round" stroke-linejoin="round"/>
</g>
<g id="g175">
<path id="path177" d="M26.2188 3.82813V7.73438" stroke="#00305E" stroke-width="1.25" stroke-miterlimit="10" stroke-linecap="round" stroke-linejoin="round"/>
</g>
<g id="g211">
<path id="path213" d="M21.6851 3.323H0.625V31.375H25.625V11.0364" stroke="#00305E" stroke-width="1.25" stroke-miterlimit="10" stroke-linecap="round" stroke-linejoin="round"/>
</g>
<g id="g215">
<path id="path217" d="M3.375 21.6247V31.375H22.875V9.70606" stroke="#00305E" stroke-width="1.25" stroke-miterlimit="10" stroke-linecap="round" stroke-linejoin="round"/>
</g>
<g id="g219">
<path id="path221" d="M21.0709 6.07295H3.375V15.9996" stroke="#00305E" stroke-width="1.25" stroke-miterlimit="10" stroke-linecap="round" stroke-linejoin="round"/>
</g>
<g id="g227">
<path id="path229" d="M10.625 22.6875C9.24431 22.6875 8.125 21.5682 8.125 20.1875V16.1101C8.125 14.7294 9.24431 13.6101 10.625 13.6101H15.625C17.0057 13.6101 18.125 14.7294 18.125 16.1101V20.1875C18.125 21.5682 17.0057 22.6875 15.625 22.6875" stroke="#00305E" stroke-width="1.25" stroke-miterlimit="10" stroke-linecap="round" stroke-linejoin="round"/>
</g>
</g>
</g>
</g>
</g>
</g>
</g>
</g>
</g>
</g>
</g>
<defs>
<clipPath id="clip0_234_1501">
<rect width="32" height="32" fill="white"/>
</clipPath>
</defs>
</svg>
