<svg width="32" height="32" viewBox="0 0 32 32" fill="none" xmlns="http://www.w3.org/2000/svg">

<g id="Medical Aesthetics &#38; Wellness in Roanoke, TX">
<rect width="1512" height="6057" transform="translate(-152 -3090.74)" fill="#F3F9FF"/>
<g id="Frame 280">
<g id="Frame 290">
<g id="Frame 288">
<rect x="-31.5" y="-339.5" width="623" height="403" rx="15.5" fill="white"/>
<rect x="-31.5" y="-339.5" width="623" height="403" rx="15.5" stroke="black"/>
<g id="Frame 287">
<g id="Frame 286">
<g id="Frame 303">
<g id="Capa_1" clip-path="url(#clip0_234_1501)">
<g id="Group">
<g id="Group_2">
<g id="Group_3">
<g id="Group_4">
<path id="Vector" d="M26.1482 17.7207L26.1445 25.4623" stroke="#FF0081" stroke-width="1.87502" stroke-miterlimit="10" stroke-linecap="round" stroke-linejoin="round"/>
<path id="Vector_2" d="M31.0648 21.5914C31.0642 22.9544 29.9591 24.0591 28.5961 24.0593L26.1523 24.0604L26.1546 19.1221L28.5953 19.1211C29.9595 19.1209 31.0654 20.2271 31.0648 21.5914Z" stroke="#FF0081" stroke-width="1.87502" stroke-miterlimit="10" stroke-linecap="round" stroke-linejoin="round"/>
<path id="Vector_3" d="M19.4414 21.5922C19.4409 22.6256 20.2786 23.4635 21.3119 23.4633L26.1468 23.4616L26.1485 19.7212L21.3113 19.7229C20.2789 19.7231 19.4419 20.5598 19.4414 21.5922Z" stroke="#FF0081" stroke-width="1.87502" stroke-miterlimit="10" stroke-linecap="round" stroke-linejoin="round"/>
<path id="Vector_4" d="M18.0977 21.5939L18.8887 21.5938" stroke="#FF0081" stroke-width="1.87502" stroke-miterlimit="10" stroke-linecap="round" stroke-linejoin="round"/>
</g>
</g>
</g>
<g id="Group_5">
<g id="Group_6">
<path id="Vector_5" d="M10.3915 3.79688C15.6128 3.79688 19.8456 8.0296 19.8456 13.2509V18.7496C19.8456 23.971 15.6128 28.2037 10.3915 28.2037C5.17017 28.2036 0.9375 23.9709 0.9375 18.7496V13.2509C0.9375 8.0296 5.17017 3.79688 10.3915 3.79688Z" stroke="#FF0081" stroke-width="1.87502" stroke-miterlimit="10" stroke-linecap="round" stroke-linejoin="round"/>
<path id="Vector_6" d="M11.959 22.6934C11.074 23.4699 9.70932 23.4691 8.82422 22.6934" stroke="#FF0081" stroke-width="1.87502" stroke-miterlimit="10" stroke-linecap="round" stroke-linejoin="round"/>
<path id="Vector_7" d="M8.09561 17.645C7.50953 18.1593 6.60574 18.1587 6.01953 17.645" stroke="#FF0081" stroke-width="1.87502" stroke-miterlimit="10" stroke-linecap="round" stroke-linejoin="round"/>
<path id="Vector_8" d="M14.6347 17.645C14.0486 18.1593 13.1448 18.1587 12.5586 17.645" stroke="#FF0081" stroke-width="1.87502" stroke-miterlimit="10" stroke-linecap="round" stroke-linejoin="round"/>
<path id="Vector_9" d="M10.3906 3.79688V5.90158C10.3906 8.9277 12.8438 11.3809 15.8699 11.3809H19.6594C18.7914 7.05525 14.9717 3.79688 10.3906 3.79688Z" stroke="#FF0081" stroke-width="1.87502" stroke-miterlimit="10" stroke-linecap="round" stroke-linejoin="round"/>
<path id="Vector_10" d="M10.3937 3.79688C5.81268 3.79688 1.99297 7.05531 1.125 11.3808H4.91446C7.94058 11.3808 10.3937 8.92764 10.3937 5.90152V3.79688Z" stroke="#FF0081" stroke-width="1.87502" stroke-miterlimit="10" stroke-linecap="round" stroke-linejoin="round"/>
</g>
</g>
</g>
</g>
</g>
</g>
</g>
</g>
</g>
</g>
</g>
<defs>
<clipPath id="clip0_234_1501">
<rect width="32" height="32" fill="white"/>
</clipPath>
</defs>
</svg>
