<svg width="32" height="32" viewBox="0 0 32 32" fill="none" xmlns="http://www.w3.org/2000/svg">
<rect width="32" height="32" fill="#1E1E1E"/>
<g id="New">
<path d="M-542 -1290C-542 -1291.1 -541.105 -1292 -540 -1292H1633C1634.1 -1292 1635 -1291.1 1635 -1290V6174C1635 6175.1 1634.1 6176 1633 6176H-540C-541.105 6176 -542 6175.1 -542 6174V-1290Z" fill="#444444"/>
<path d="M-540 -1292V-1291H1633V-1292V-1293H-540V-1292ZM1635 -1290H1634V6174H1635H1636V-1290H1635ZM1633 6176V6175H-540V6176V6177H1633V6176ZM-542 6174H-541V-1290H-542H-543V6174H-542ZM-540 6176V6175C-540.552 6175 -541 6174.55 -541 6174H-542H-543C-543 6175.66 -541.657 6177 -540 6177V6176ZM1635 6174H1634C1634 6174.55 1633.55 6175 1633 6175V6176V6177C1634.66 6177 1636 6175.66 1636 6174H1635ZM1633 -1292V-1291C1633.55 -1291 1634 -1290.55 1634 -1290H1635H1636C1636 -1291.66 1634.66 -1293 1633 -1293V-1292ZM-540 -1292V-1293C-541.657 -1293 -543 -1291.66 -543 -1290H-542H-541C-541 -1290.55 -540.552 -1291 -540 -1291V-1292Z" fill="white" fill-opacity="0.1"/>
<g id="Chiropractic Care">
<rect width="1512" height="6664" transform="translate(-209 -890)" fill="#F3F9FF"/>
<foreignObject x="-97" y="-86" width="1288" height="204"><div xmlns="http://www.w3.org/1999/xhtml" style="backdrop-filter:blur(22px);clip-path:url(#bgblur_0_59_1802_clip_path);height:100%;width:100%"></div></foreignObject><g id="Frame 190" data-figma-bg-blur-radius="44">
<rect x="-53" y="-42" width="1200" height="116" rx="32" fill="white" fill-opacity="0.6"/>
<g id="Frame 161">
<g id="Frame 157">
<g id="Group 64">
<g id="svg780" clip-path="url(#clip1_59_1802)">
<g id="g786">
<g id="g788">
<g id="Clip path group">
<mask id="mask0_59_1802" style="mask-type:luminance" maskUnits="userSpaceOnUse" x="0" y="0" width="32" height="32">
<g id="clipPath794">
<path id="path792" d="M0 3.8147e-06H32V32H0V3.8147e-06Z" fill="white"/>
</g>
</mask>
<g mask="url(#mask0_59_1802)">
<g id="g790">
<g id="g796">
<path id="path798" d="M22.7812 27.4375H20.1875C19.4971 27.4375 18.9375 27.9971 18.9375 28.6875V31.2812" stroke="#00305E" stroke-width="1.25" stroke-miterlimit="10" stroke-linecap="round" stroke-linejoin="round"/>
</g>
<g id="g800">
<path id="path802" d="M22.875 8.22412V3.37118C22.875 2.68081 22.3154 2.12118 21.625 2.12118H16.8125" stroke="#00305E" stroke-width="1.25" stroke-miterlimit="10" stroke-linecap="round" stroke-linejoin="round"/>
</g>
<g id="g804">
<path id="path806" d="M12.6992 31.375H18.9361L22.8736 27.4375V23.8194" stroke="#00305E" stroke-width="1.25" stroke-miterlimit="10" stroke-linecap="round" stroke-linejoin="round"/>
</g>
<g id="g808">
<path id="path810" d="M6.6875 2.12113H1.875C1.18462 2.12113 0.625 2.68075 0.625 3.37113V30.125C0.625 30.8154 1.18462 31.375 1.875 31.375H7.07531" stroke="#00305E" stroke-width="1.25" stroke-miterlimit="10" stroke-linecap="round" stroke-linejoin="round"/>
</g>
<g id="g812">
<path id="path814" d="M15.7227 4.125H7.77472C7.37491 4.125 7.05078 3.80088 7.05078 3.40106V0.625H16.4466V3.40106C16.4466 3.80088 16.1225 4.125 15.7227 4.125Z" stroke="#00305E" stroke-width="1.25" stroke-miterlimit="10" stroke-linecap="round" stroke-linejoin="round"/>
</g>
<g id="g816">
<path id="path818" d="M4.81641 17.8006L5.93766 18.9219L8.54528 16.3143" stroke="#00305E" stroke-width="1.25" stroke-miterlimit="10" stroke-linecap="round" stroke-linejoin="round"/>
</g>
<g id="g820">
<path id="path822" d="M11.7227 18.9131H14.6675" stroke="#00305E" stroke-width="1.25" stroke-miterlimit="10" stroke-linecap="round" stroke-linejoin="round"/>
</g>
<g id="g824">
<path id="path826" d="M11.7227 16.1719H17.3819" stroke="#00305E" stroke-width="1.25" stroke-miterlimit="10" stroke-linecap="round" stroke-linejoin="round"/>
</g>
<g id="g828">
<path id="path830" d="M4.81641 24.617L5.93766 25.7383L8.54528 23.1307" stroke="#00305E" stroke-width="1.25" stroke-miterlimit="10" stroke-linecap="round" stroke-linejoin="round"/>
</g>
<g id="g832">
<path id="path834" d="M11.7227 25.7295H16.006" stroke="#00305E" stroke-width="1.25" stroke-miterlimit="10" stroke-linecap="round" stroke-linejoin="round"/>
</g>
<g id="g836">
<path id="path838" d="M11.7227 22.9883H17.3445" stroke="#00305E" stroke-width="1.25" stroke-miterlimit="10" stroke-linecap="round" stroke-linejoin="round"/>
</g>
<g id="g840">
<path id="path842" d="M4.81641 10.9881L5.93766 12.1094L8.54528 9.50175" stroke="#00305E" stroke-width="1.25" stroke-miterlimit="10" stroke-linecap="round" stroke-linejoin="round"/>
</g>
<g id="g844">
<path id="path846" d="M11.7227 12.1006H14.5336" stroke="#00305E" stroke-width="1.25" stroke-miterlimit="10" stroke-linecap="round" stroke-linejoin="round"/>
</g>
<g id="g848">
<path id="path850" d="M11.7227 9.35938H18.683" stroke="#00305E" stroke-width="1.25" stroke-miterlimit="10" stroke-linecap="round" stroke-linejoin="round"/>
</g>
<g id="g856">
<path id="path858" d="M19.875 11.7741V15.7812C19.875 18.5516 21.7404 20.9619 24.375 21.6853C27.0096 20.9619 28.875 18.5516 28.875 15.7812V11.7741L24.375 10.3692L19.875 11.7741Z" stroke="#00305E" stroke-width="1.25" stroke-miterlimit="10" stroke-linecap="round" stroke-linejoin="round"/>
</g>
<g id="g860">
<path id="path862" d="M24.3747 7.75L31.375 9.9355V15.7812C31.375 19.9177 28.4376 23.4714 24.375 24.25C20.3124 23.4714 17.375 19.9177 17.375 15.7812V9.9355L24.3753 7.75" stroke="#00305E" stroke-width="1.25" stroke-miterlimit="10" stroke-linecap="round" stroke-linejoin="round"/>
</g>
<g id="g864">
<path id="path866" d="M22.375 15.84L23.815 17.28L26.375 14.72" stroke="#00305E" stroke-width="1.25" stroke-miterlimit="10" stroke-linecap="round" stroke-linejoin="round"/>
</g>
</g>
</g>
</g>
</g>
</g>
</g>
</g>
</g>
</g>
</g>
</g>
</g>
<defs>
<clipPath id="bgblur_0_59_1802_clip_path" transform="translate(97 86)"><rect x="-53" y="-42" width="1200" height="116" rx="32"/>
</clipPath><clipPath id="clip1_59_1802">
<rect width="32" height="32" fill="white"/>
</clipPath>
</defs>
</svg>
