<svg width="64" height="64" viewBox="0 0 64 64" fill="none" xmlns="http://www.w3.org/2000/svg">
<g id="Service Page - First MD">
<g id="Frame 169">
<g id="Frame 165">
<g id="svg2352" clip-path="url(#clip0_234_1501)">
<g id="g2358">
<g id="g2360">
<g id="Clip path group">
<mask id="mask0_234_1501" style="mask-type:luminance" maskUnits="userSpaceOnUse" x="0" y="-1" width="64" height="65">
<g id="clipPath2366">
<path id="path2364" d="M0 -0.000240326H64V63.9998H0V-0.000240326Z" fill="white"/>
</g>
</mask>
<g mask="url(#mask0_234_1501)">
<g id="g2362">
<g id="g2368">
<path id="path2370" d="M54.5 16.9998C54.5 23.213 49.4633 28.2498 43.25 28.2498C37.0367 28.2498 32 23.213 32 16.9998C32 10.7865 37.0367 5.74976 43.25 5.74976C49.4633 5.74976 54.5 10.7865 54.5 16.9998Z" stroke="#E3173E" stroke-width="3.75" stroke-miterlimit="10"/>
</g>
<g id="g2372">
<path id="path2374" d="M38.9443 27.3962L36.793 32.7153" stroke="#E3173E" stroke-width="3.75" stroke-miterlimit="10"/>
</g>
<g id="g2376">
<path id="path2378" d="M27.6602 10.542L32.8543 12.6934" stroke="#E3173E" stroke-width="3.75" stroke-miterlimit="10"/>
</g>
<g id="g2380">
<path id="path2382" d="M36.5586 0.716391L38.9453 6.60352" stroke="#E3173E" stroke-width="3.75" stroke-miterlimit="10"/>
</g>
<g id="g2384">
<path id="path2386" d="M58.8426 10.542L53.6484 12.6934" stroke="#E3173E" stroke-width="3.75" stroke-miterlimit="10"/>
</g>
<g id="g2388">
<path id="path2390" d="M47.5586 6.60352L49.9316 0.711891" stroke="#E3173E" stroke-width="3.75" stroke-miterlimit="10"/>
</g>
<g id="g2392">
<path id="path2394" d="M47.5586 27.3962L49.71 32.7153" stroke="#E3173E" stroke-width="3.75" stroke-miterlimit="10"/>
</g>
<g id="g2396">
<path id="path2398" d="M27.6602 23.4575L32.8543 21.3061" stroke="#E3173E" stroke-width="3.75" stroke-miterlimit="10"/>
</g>
<g id="g2400">
<path id="path2402" d="M58.8426 23.4575L53.6484 21.3061" stroke="#E3173E" stroke-width="3.75" stroke-miterlimit="10"/>
</g>
<g id="g2404">
<path id="path2406" d="M41.9258 22.0757L44.5774 19.4241" stroke="#E3173E" stroke-width="3.75" stroke-miterlimit="10"/>
</g>
<g id="g2408">
<path id="path2410" d="M38.1758 14.5757L40.8274 11.9241" stroke="#E3173E" stroke-width="3.75" stroke-miterlimit="10"/>
</g>
<g id="g2412">
<path id="path2414" d="M45.6758 14.5757L48.3274 11.9241" stroke="#E3173E" stroke-width="3.75" stroke-miterlimit="10"/>
</g>
<g id="g2416">
<path id="path2418" d="M24.5 32.1248C24.5 36.2669 21.1421 39.6248 17 39.6248C12.8579 39.6248 9.5 36.2669 9.5 32.1248C9.5 27.9826 12.8579 24.4998 17 24.4998C21.1421 24.4998 24.5 27.9826 24.5 32.1248Z" stroke="#E3173E" stroke-width="3.75" stroke-miterlimit="10"/>
</g>
<g id="g2420">
<path id="path2422" d="M17 43.3748C10.7867 43.3748 5.75 48.4115 5.75 54.6248V62.1248H28.25V54.6248C28.25 48.4115 23.2133 43.3748 17 43.3748Z" stroke="#E3173E" stroke-width="3.75" stroke-miterlimit="10"/>
</g>
<g id="g2424">
<path id="path2426" d="M26.6094 48.7678L35.7524 39.6248H60.1274" stroke="#E3173E" stroke-width="3.75" stroke-miterlimit="10"/>
</g>
<g id="g2428">
<path id="path2430" d="M60.125 54.6248H45.125" stroke="#E3173E" stroke-width="3.75" stroke-miterlimit="10"/>
</g>
<g id="g2432">
<path id="path2434" d="M41.375 54.6248H37.625" stroke="#E3173E" stroke-width="3.75" stroke-miterlimit="10"/>
</g>
<g id="g2436">
<path id="path2438" d="M60.125 62.1248H45.125" stroke="#E3173E" stroke-width="3.75" stroke-miterlimit="10"/>
</g>
<g id="g2440">
<path id="path2442" d="M41.375 62.1248H37.625" stroke="#E3173E" stroke-width="3.75" stroke-miterlimit="10"/>
</g>
<g id="g2444">
<path id="path2446" d="M60.125 47.1248H45.125" stroke="#E3173E" stroke-width="3.75" stroke-miterlimit="10"/>
</g>
<g id="g2448">
<path id="path2450" d="M41.375 47.1248H37.625" stroke="#E3173E" stroke-width="3.75" stroke-miterlimit="10"/>
</g>
</g>
</g>
</g>
</g>
</g>
</g>
</g>
</g>
</g>
<defs>
<clipPath id="clip0_234_1501">
<rect width="64" height="64" fill="white"/>
</clipPath>
</defs>
</svg>
